HIERARCHY
ROOT Hips
{
	OFFSET 0.000000 97.167313 0.000000
	CHANNELS 6 Xposition Yposition Zposition Xrotation Yrotation Zrotation
	JOINT Spine
	{
		OFFSET 0.000000 13.784798 0.064400
		CHANNELS 3 Xrotation Yrotation Zrotation
		JOINT Spine1
		{
			OFFSET 0.000000 12.037903 0.404700
			CHANNELS 3 Xrotation Yrotation Zrotation
			JOINT Spine2
			{
				OFFSET 0.000000 17.795601 0.420200
				CHANNELS 3 Xrotation Yrotation Zrotation
				JOINT Neck
				{
					OFFSET 0.000000 39.131302 11.954600
					CHANNELS 3 Xrotation Yrotation Zrotation
					JOINT Head
					{
						OFFSET 0.000000 14.456192 15.627699
						CHANNELS 3 Xrotation Yrotation Zrotation
						JOINT HeadTop_End
						{
							OFFSET 0.000000 15.703506 7.603401
							CHANNELS 3 Xrotation Yrotation Zrotation
							End Site
							{
								OFFSET 0.000000 17.447403 0.000000
							}
						}
					}
				}
				JOINT LeftShoulder
				{
					OFFSET 17.399500 24.608795 1.168800
					CHANNELS 3 Xrotation Yrotation Zrotation
					JOINT LeftArm
					{
						OFFSET 18.980635 5.765305 1.818600
						CHANNELS 3 Xrotation Yrotation Zrotation
						JOINT LeftForeArm
						{
							OFFSET 49.290169 0.000000 0.000000
							CHANNELS 3 Xrotation Yrotation Zrotation
							JOINT LeftHand
							{
								OFFSET 31.562012 0.000000 0.000000
								CHANNELS 3 Xrotation Yrotation Zrotation
								JOINT LeftHandThumb1
								{
									OFFSET 6.133995 -4.388519 7.076070
									CHANNELS 3 Xrotation Yrotation Zrotation
									JOINT LeftHandThumb2
									{
										OFFSET 6.037666 -3.485840 3.485847
										CHANNELS 3 Xrotation Yrotation Zrotation
										JOINT LeftHandThumb3
										{
											OFFSET 6.496506 -3.750763 3.750761
											CHANNELS 3 Xrotation Yrotation Zrotation
											JOINT LeftHandThumb4
											{
												OFFSET 5.616882 -3.242905 3.242910
												CHANNELS 3 Xrotation Yrotation Zrotation
												End Site
												{
													OFFSET -1.254608 7.132141 0.375429
												}
											}
										}
									}
								}
								JOINT LeftHandPinky1
								{
									OFFSET 18.920792 -0.453171 -11.426712
									CHANNELS 3 Xrotation Yrotation Zrotation
									JOINT LeftHandPinky2
									{
										OFFSET 4.919586 0.000000 0.000000
										CHANNELS 3 Xrotation Yrotation Zrotation
										JOINT LeftHandPinky3
										{
											OFFSET 5.233047 0.000000 0.000000
											CHANNELS 3 Xrotation Yrotation Zrotation
											JOINT LeftHandPinky4
											{
												OFFSET 5.571716 0.000000 0.000000
												CHANNELS 3 Xrotation Yrotation Zrotation
												End Site
												{
													OFFSET -3.459808 4.342407 -0.466164
												}
											}
										}
									}
								}
								JOINT LeftHandRing1
								{
									OFFSET 22.726120 -0.094986 -6.500475
									CHANNELS 3 Xrotation Yrotation Zrotation
									JOINT LeftHandRing2
									{
										OFFSET 6.408615 0.000000 0.000000
										CHANNELS 3 Xrotation Yrotation Zrotation
										JOINT LeftHandRing3
										{
											OFFSET 6.150223 0.000000 0.000000
											CHANNELS 3 Xrotation Yrotation Zrotation
											JOINT LeftHandRing4
											{
												OFFSET 6.145386 0.000000 0.000000
												CHANNELS 3 Xrotation Yrotation Zrotation
												End Site
												{
													OFFSET -3.671402 4.923981 -0.202372
												}
											}
										}
									}
								}
								JOINT LeftHandMiddle1
								{
									OFFSET 23.373947 0.000000 0.000001
									CHANNELS 3 Xrotation Yrotation Zrotation
									JOINT LeftHandMiddle2
									{
										OFFSET 6.996567 0.000000 0.000000
										CHANNELS 3 Xrotation Yrotation Zrotation
										JOINT LeftHandMiddle3
										{
											OFFSET 7.015945 0.000000 0.000000
											CHANNELS 3 Xrotation Yrotation Zrotation
											JOINT LeftHandMiddle4
											{
												OFFSET 7.721573 0.000000 0.000000
												CHANNELS 3 Xrotation Yrotation Zrotation
												End Site
												{
													OFFSET -4.651108 6.158463 0.251582
												}
											}
										}
									}
								}
								JOINT LeftHandIndex1
								{
									OFFSET 21.310577 -0.490082 6.209344
									CHANNELS 3 Xrotation Yrotation Zrotation
									JOINT LeftHandIndex2
									{
										OFFSET 7.536453 0.000000 0.000000
										CHANNELS 3 Xrotation Yrotation Zrotation
										JOINT LeftHandIndex3
										{
											OFFSET 7.512344 0.000000 0.000000
											CHANNELS 3 Xrotation Yrotation Zrotation
											JOINT LeftHandIndex4
											{
												OFFSET 10.212402 0.000000 0.000001
												CHANNELS 3 Xrotation Yrotation Zrotation
												End Site
												{
													OFFSET -5.180801 8.690506 1.388433
												}
											}
										}
									}
								}
							}
						}
					}
				}
				JOINT RightShoulder
				{
					OFFSET -17.399500 24.608795 1.168800
					CHANNELS 3 Xrotation Yrotation Zrotation
					JOINT RightArm
					{
						OFFSET -18.980635 5.765305 1.818600
						CHANNELS 3 Xrotation Yrotation Zrotation
						JOINT RightForeArm
						{
							OFFSET -49.290169 0.000000 0.000000
							CHANNELS 3 Xrotation Yrotation Zrotation
							JOINT RightHand
							{
								OFFSET -31.562012 0.000000 0.000000
								CHANNELS 3 Xrotation Yrotation Zrotation
								JOINT RightHandThumb1
								{
									OFFSET -6.133995 -4.388519 7.076070
									CHANNELS 3 Xrotation Yrotation Zrotation
									JOINT RightHandThumb2
									{
										OFFSET -6.037666 -3.485840 3.485847
										CHANNELS 3 Xrotation Yrotation Zrotation
										JOINT RightHandThumb3
										{
											OFFSET -6.496506 -3.750763 3.750761
											CHANNELS 3 Xrotation Yrotation Zrotation
											JOINT RightHandThumb4
											{
												OFFSET -5.616882 -3.242905 3.242910
												CHANNELS 3 Xrotation Yrotation Zrotation
												End Site
												{
													OFFSET 1.254608 7.132141 0.375429
												}
											}
										}
									}
								}
								JOINT RightHandIndex1
								{
									OFFSET -21.310577 -0.490082 6.209344
									CHANNELS 3 Xrotation Yrotation Zrotation
									JOINT RightHandIndex2
									{
										OFFSET -7.536453 0.000000 0.000000
										CHANNELS 3 Xrotation Yrotation Zrotation
										JOINT RightHandIndex3
										{
											OFFSET -7.512344 0.000000 0.000000
											CHANNELS 3 Xrotation Yrotation Zrotation
											JOINT RightHandIndex4
											{
												OFFSET -10.212402 0.000000 0.000001
												CHANNELS 3 Xrotation Yrotation Zrotation
												End Site
												{
													OFFSET 5.180801 8.690506 1.388433
												}
											}
										}
									}
								}
								JOINT RightHandMiddle1
								{
									OFFSET -23.373947 0.000000 0.000001
									CHANNELS 3 Xrotation Yrotation Zrotation
									JOINT RightHandMiddle2
									{
										OFFSET -6.996567 0.000000 0.000000
										CHANNELS 3 Xrotation Yrotation Zrotation
										JOINT RightHandMiddle3
										{
											OFFSET -7.015945 0.000000 0.000000
											CHANNELS 3 Xrotation Yrotation Zrotation
											JOINT RightHandMiddle4
											{
												OFFSET -7.721573 0.000000 0.000000
												CHANNELS 3 Xrotation Yrotation Zrotation
												End Site
												{
													OFFSET 4.651108 6.158463 0.251582
												}
											}
										}
									}
								}
								JOINT RightHandRing1
								{
									OFFSET -22.726120 -0.094986 -6.500475
									CHANNELS 3 Xrotation Yrotation Zrotation
									JOINT RightHandRing2
									{
										OFFSET -6.408615 0.000000 0.000000
										CHANNELS 3 Xrotation Yrotation Zrotation
										JOINT RightHandRing3
										{
											OFFSET -6.150223 0.000000 0.000000
											CHANNELS 3 Xrotation Yrotation Zrotation
											JOINT RightHandRing4
											{
												OFFSET -6.145386 0.000000 0.000000
												CHANNELS 3 Xrotation Yrotation Zrotation
												End Site
												{
													OFFSET 3.671402 4.923981 -0.202372
												}
											}
										}
									}
								}
								JOINT RightHandPinky1
								{
									OFFSET -18.920792 -0.453171 -11.426712
									CHANNELS 3 Xrotation Yrotation Zrotation
									JOINT RightHandPinky2
									{
										OFFSET -4.919586 0.000000 0.000000
										CHANNELS 3 Xrotation Yrotation Zrotation
										JOINT RightHandPinky3
										{
											OFFSET -5.233047 0.000000 0.000000
											CHANNELS 3 Xrotation Yrotation Zrotation
											JOINT RightHandPinky4
											{
												OFFSET -5.571716 0.000000 0.000000
												CHANNELS 3 Xrotation Yrotation Zrotation
												End Site
												{
													OFFSET 3.459808 4.342407 -0.466164
												}
											}
										}
									}
								}
							}
						}
					}
				}
			}
		}
	}
	JOINT LeftUpLeg
	{
		OFFSET 19.899099 -7.885101 -3.429500
		CHANNELS 3 Xrotation Yrotation Zrotation
		JOINT LeftLeg
		{
			OFFSET 1.745560 -36.997807 10.304700
			CHANNELS 3 Xrotation Yrotation Zrotation
			JOINT LeftFoot
			{
				OFFSET -1.745558 -29.803308 -13.615400
				CHANNELS 3 Xrotation Yrotation Zrotation
				JOINT LeftToeBase
				{
					OFFSET 1.181900 -18.539904 15.226099
					CHANNELS 3 Xrotation Yrotation Zrotation
					JOINT LeftToe_End
					{
						OFFSET -0.863701 1.402801 16.534700
						CHANNELS 3 Xrotation Yrotation Zrotation
						End Site
						{
							OFFSET 0.000000 16.616566 0.000000
						}
					}
				}
			}
		}
	}
	JOINT RightUpLeg
	{
		OFFSET -19.899099 -7.885101 -3.429500
		CHANNELS 3 Xrotation Yrotation Zrotation
		JOINT RightLeg
		{
			OFFSET -1.745560 -36.997807 10.304700
			CHANNELS 3 Xrotation Yrotation Zrotation
			JOINT RightFoot
			{
				OFFSET 1.745558 -29.803308 -13.615400
				CHANNELS 3 Xrotation Yrotation Zrotation
				JOINT RightToeBase
				{
					OFFSET -1.181900 -18.539904 15.226099
					CHANNELS 3 Xrotation Yrotation Zrotation
					JOINT RightToe_End
					{
						OFFSET 0.863701 1.402801 16.534700
						CHANNELS 3 Xrotation Yrotation Zrotation
						End Site
						{
							OFFSET 0.000000 16.616566 0.000000
						}
					}
				}
			}
		}
	}
}
MOTION
Frames: 4
Frame Time: 0.033333
5.107522 65.047424 -123.799744 18.099373 5.160371 4.868548 9.906786 14.362957 -12.266508 0.358920 3.969178 -2.406303 0.263341 4.020000 -2.416422 0.654364 -1.829764 -0.829901 -2.718253 -17.089941 5.026421 0.000001 0.000000 -0.000000 -38.368830 8.651751 12.196147 25.372406 35.670817 -27.444598 0.000032 -68.085942 0.000023 35.723559 22.207578 -9.988388 -89.879497 45.365669 -12.614686 10.299235 -6.395706 37.211373 -17.501919 11.856303 22.883048 0.000002 0.000001 -0.000002 2.933919 10.614316 -23.240173 0.003871 0.213195 -2.080959 0.698275 2.775708 -28.236562 0.000004 -0.000000 -0.000001 0.611809 5.008903 -17.235764 0.202806 1.529607 -15.104297 0.172219 1.411427 -13.912172 -0.000002 0.000001 0.000005 -0.034260 1.443766 -4.892890 0.204169 1.534645 -15.155218 0.184185 1.458894 -14.390186 0.000001 -0.000002 0.000004 5.273906 -6.405406 0.037015 0.052336 0.782172 -7.655912 0.145647 1.299537 -12.789315 0.000002 0.000003 0.000001 1.081177 -0.054932 -31.441949 -11.142484 5.324923 5.605097 0.000282 83.154889 -0.000296 -18.814548 7.985990 -13.598418 -66.567160 -26.644049 14.100199 19.390989 -0.290784 -27.550729 -1.227460 -4.533685 -2.795335 0.000003 -0.000001 -0.000000 5.574941 6.459794 -3.364285 0.030712 -0.534536 6.576350 0.051789 -0.693360 8.543341 -0.000000 -0.000003 0.000003 0.016047 -0.980477 1.407804 0.124323 -1.070025 13.254443 0.037009 -0.586669 7.220949 0.000000 -0.000000 -0.000004 0.428146 -4.423053 13.357480 0.082877 -0.875571 10.813253 0.044425 -0.642412 7.911459 -0.000001 -0.000002 -0.000003 2.283000 -10.107321 18.751226 0.000230 -0.046219 0.567454 0.272107 -1.570125 19.662802 0.000002 0.000003 -0.000001 -69.015250 21.098060 1.790666 75.972638 10.282338 -6.015030 -15.638481 -4.032634 7.706001 -10.457390 -0.015780 1.259933 0.000000 -0.000000 0.000000 30.224871 -5.807886 10.248815 17.227224 -9.412720 0.250033 -54.361629 -17.923299 6.702255 -11.651688 0.020890 -1.445353 -0.000000 0.000002 0.000000 
5.098701 68.471115 -122.166817 17.967222 5.415589 3.875040 9.488542 12.841428 -12.043901 0.421566 3.677560 -2.509169 0.328054 3.726658 -2.523632 0.502884 -1.747958 -0.693098 -1.492356 -16.413059 5.847539 -0.000002 -0.000000 -0.000000 -38.039519 7.671865 8.785769 29.386670 32.217743 -33.770153 0.000036 -63.779822 0.000027 33.832263 20.488787 -7.886591 -89.867832 45.407528 -12.722132 10.751397 -7.161488 37.354803 -17.491498 12.250519 22.941267 -0.000002 -0.000001 0.000000 2.896874 10.798699 -22.313444 0.000669 0.088277 -0.861464 0.668630 2.719837 -27.618210 0.000002 0.000003 -0.000000 0.607442 5.035548 -16.545857 0.177684 1.433293 -14.132260 0.154412 1.337513 -13.169804 -0.000001 -0.000002 0.000007 -0.021702 1.367556 -4.147051 0.181219 1.447314 -14.273456 0.168602 1.396777 -13.764810 -0.000004 -0.000001 0.000008 5.352865 -6.428498 0.856444 0.045078 0.726152 -7.104573 0.141590 1.281534 -12.609346 -0.000005 0.000005 0.000002 0.966478 0.778282 -19.563856 -11.113521 4.383955 7.957705 0.000274 92.236384 -0.000150 -24.012143 12.659332 -10.583555 -74.156819 -31.554747 14.630209 21.038325 1.167738 -32.080661 -3.053607 -2.372465 -3.714761 0.000001 -0.000001 0.000001 5.780812 6.454395 -5.723922 0.021519 -0.447601 5.503262 0.014465 -0.367188 4.512085 0.000002 -0.000001 0.000001 0.081737 -0.760625 -1.256456 0.091653 -0.920345 11.373353 0.000111 -0.032471 0.398629 0.000001 -0.000001 -0.000004 0.344285 -4.327751 10.272978 0.031629 -0.542480 6.674609 0.003387 -0.177642 2.181201 -0.000003 -0.000000 -0.000003 1.838947 -10.164432 14.987890 0.000001 0.000007 0.000051 0.096829 -0.945718 11.691328 -0.000000 -0.000000 0.000002 -62.757199 18.510462 -0.026864 70.637769 5.382233 -4.861131 -17.671509 -4.437097 6.849569 -11.917393 0.000002 0.000002 -0.000000 0.000002 -0.000000 26.730336 -6.423667 8.213647 20.411146 -9.545068 -0.006226 -42.031577 -14.685798 12.948597 -22.045327 0.278437 -3.876894 -0.000000 -0.000002 0.000000 
4.850304 71.253189 -120.399544 17.125106 6.623788 3.124125 10.251877 10.412973 -11.107529 0.750030 3.070728 -2.346472 0.668334 3.111126 -2.365893 0.216603 -1.539156 -0.706620 -1.888932 -15.140414 5.692585 -0.000002 0.000000 0.000000 -37.347047 7.163106 2.778889 28.330139 23.435036 -38.304018 0.000032 -53.784502 0.000018 38.434315 22.526097 -7.963505 -89.862128 45.415939 -12.735972 10.745965 -7.222914 37.319071 -17.491737 12.259966 22.951350 0.000003 -0.000000 -0.000003 2.896467 10.806947 -22.281788 0.000584 0.083268 -0.812662 0.670820 2.724014 -27.664187 0.000001 -0.000003 0.000001 0.607426 5.036968 -16.522245 0.176819 1.429885 -14.098036 0.153793 1.334879 -13.143556 -0.000001 0.000002 0.000003 -0.021026 1.367285 -4.118939 0.180440 1.444232 -14.242458 0.168058 1.394577 -13.742831 -0.000002 -0.000000 0.000001 5.361281 -6.431035 0.888685 0.044826 0.724105 -7.084440 0.141472 1.281019 -12.604195 -0.000000 0.000001 0.000001 0.973051 1.837818 -8.092360 -8.095220 3.073474 10.681189 0.000008 98.856784 0.000023 -27.489609 16.349969 -6.774862 -82.447193 -36.735407 14.514504 22.420890 1.586689 -36.338181 -5.905418 -0.164880 -5.000663 0.000001 -0.000001 -0.000000 5.915772 6.448284 -7.166629 0.017920 -0.408645 5.022832 0.000565 -0.072651 0.891763 0.000000 0.000003 -0.000001 0.131783 -0.614484 -3.050851 0.077445 -0.846747 10.453064 0.020912 0.441237 -5.424599 -0.000001 -0.000001 -0.000006 0.273583 -4.197496 8.034243 0.009803 -0.302393 3.714716 0.004447 0.203652 -2.500499 0.000000 -0.000005 -0.000004 1.478233 -10.013244 12.339557 0.000004 0.000013 0.000017 0.017655 -0.405598 4.985241 0.000004 -0.000002 -0.000001 -58.056786 14.138190 -2.439637 65.865618 1.199453 -3.990121 -17.815194 -3.618830 4.685628 -10.409239 0.000003 0.000006 -0.000000 -0.000000 -0.000000 15.631933 -8.290461 2.191776 34.327011 -3.721416 1.870472 -22.469466 -4.616346 17.268084 -46.015497 2.683541 -7.984142 0.000000 -0.000001 -0.000000 
4.217439 71.668289 -118.862740 15.833145 8.250570 2.772594 11.755855 7.487445 -9.803401 1.210326 2.273360 -1.831105 1.147487 2.298277 -1.843803 -0.155700 -1.214892 -0.731697 -3.278099 -13.131650 5.227107 0.000001 0.000000 -0.000000 -37.056092 5.242267 -1.865544 22.725803 11.083066 -40.969893 0.000021 -43.132904 -0.000005 37.765707 23.901764 -5.316704 -89.872790 45.363907 -12.593154 10.070055 -6.157280 37.073877 -17.508362 11.687898 22.878979 0.000001 0.000003 -0.000002 2.949204 10.543973 -23.615832 0.005845 0.262242 -2.559928 0.717582 2.811294 -28.632445 -0.000001 -0.000000 -0.000001 0.613512 4.999218 -17.515342 0.213407 1.568329 -15.496294 0.179676 1.441130 -14.211286 -0.000000 0.000002 0.000002 -0.038217 1.482763 -5.189278 0.213799 1.569758 -15.510837 0.190661 1.483905 -14.642450 0.000001 -0.000001 0.000002 5.254284 -6.399997 -0.286022 0.055386 0.804582 -7.876620 0.147356 1.307026 -12.864442 -0.000002 0.000003 0.000002 1.441858 3.128274 -2.102022 -5.288909 3.472992 16.835564 -0.000148 98.438483 0.000191 -26.444341 15.748958 -5.493856 -89.478128 -40.867621 13.799307 22.177453 1.335657 -39.402098 -8.112094 1.624209 -6.198077 -0.000003 -0.000001 -0.000001 5.930630 6.445024 -7.149385 0.020509 -0.436906 5.371441 0.001234 0.107583 -1.320771 -0.000004 0.000001 -0.000001 0.140623 -0.590129 -3.352141 0.084404 -0.883527 10.912581 0.052227 0.696290 -8.579824 0.000001 0.000000 -0.000004 0.240573 -4.061151 7.372423 0.006020 -0.237066 2.911341 0.015987 0.386056 -4.744516 -0.000001 0.000000 -0.000007 1.333703 -9.673613 11.696521 0.000003 -0.002008 0.024664 0.001572 -0.121066 1.486335 -0.000000 -0.000000 0.000006 -56.928203 9.200665 -5.876256 65.676770 -2.065645 -1.346932 -17.603168 -3.473660 2.069792 -9.421746 -0.000001 0.000002 0.000001 0.000000 -0.000000 -0.132823 -8.026752 -3.401753 48.847297 6.663392 1.132080 6.390204 9.558412 18.384748 -50.400738 17.947140 -15.017839 0.000000 0.000001 0.000001 
